<?xml version="1.0" encoding="utf-8"?>
<!-- Generator: Adobe Illustrator 27.6.1, SVG Export Plug-In . SVG Version: 6.00 Build 0)  -->
<svg version="1.1" id="Layer_1" xmlns="http://www.w3.org/2000/svg" xmlns:xlink="http://www.w3.org/1999/xlink" x="0px" y="0px"
	 viewBox="0 0 448 512" style="enable-background:new 0 0 448 512;" xml:space="preserve">
<style type="text/css">
	.st0{fill:#FFFFFF;}
</style>
<path class="st0" d="M160,112c0-35.3,28.7-64,64-64s64,28.7,64,64v48H160V112z M112,160H48c-26.5,0-48,21.5-48,48v208
	c0,53,43,96,96,96h256c53,0,96-43,96-96V208c0-26.5-21.5-48-48-48h-64v-48C336,50.1,285.9,0,224,0S112,50.1,112,112V160z M136,208
	c13.3,0,24,10.7,24,24s-10.7,24-24,24s-24-10.7-24-24S122.7,208,136,208z M288,232c0-13.3,10.7-24,24-24s24,10.7,24,24
	s-10.7,24-24,24S288,245.3,288,232L288,232z"/>
</svg>
