<?xml version="1.0" encoding="utf-8"?>
<!-- Generator: Adobe Illustrator 27.6.1, SVG Export Plug-In . SVG Version: 6.00 Build 0)  -->
<svg version="1.1" id="Layer_1" xmlns="http://www.w3.org/2000/svg" xmlns:xlink="http://www.w3.org/1999/xlink" x="0px" y="0px"
	 viewBox="0 0 576 512" style="enable-background:new 0 0 576 512;" xml:space="preserve">
<style type="text/css">
	.st0{fill:#FFFFFF;}
</style>
<path class="st0" d="M0,24C0,10.7,10.7,0,24,0h45.5c22,0,41.5,12.8,50.6,32h411c26.3,0,45.5,25,38.6,50.4l-41,152.3
	c-8.5,31.4-37,53.3-69.5,53.3H170.7l5.4,28.5c2.2,11.3,12.1,19.5,23.6,19.5H488c13.3,0,24,10.7,24,24s-10.7,24-24,24H199.7
	c-34.6,0-64.3-24.6-70.7-58.5l-51.6-271c-0.7-3.8-4-6.5-7.9-6.5H24C10.7,48,0,37.3,0,24z M128,464c0-26.5,21.5-48,48-48
	s48,21.5,48,48s-21.5,48-48,48S128,490.5,128,464L128,464z M464,416c26.5,0,48,21.5,48,48s-21.5,48-48,48l0,0c-26.5,0-48-21.5-48-48
	S437.5,416,464,416z"/>
</svg>
